<?xml version="1.0" encoding="UTF-8" standalone="no"?>
<svg
   height="319"
   width="300"
   style="width: 300px; height: 319px; position: absolute; top: 50%; left: 50%; transform: translate(-50%, -50%) scale(1); z-index: 0; cursor: pointer;"
   version="1.1"
   id="svg270"
   sodipodi:docname="Logo Black.svg"
   inkscape:version="1.1.2 (b8e25be833, 2022-02-05)"
   xmlns:inkscape="http://www.inkscape.org/namespaces/inkscape"
   xmlns:sodipodi="http://sodipodi.sourceforge.net/DTD/sodipodi-0.dtd"
   xmlns="http://www.w3.org/2000/svg"
   xmlns:svg="http://www.w3.org/2000/svg">
  <sodipodi:namedview
     id="namedview272"
     pagecolor="#505050"
     bordercolor="#eeeeee"
     borderopacity="1"
     inkscape:pageshadow="0"
     inkscape:pageopacity="0"
     inkscape:pagecheckerboard="0"
     showgrid="false"
     inkscape:zoom="0.86990596"
     inkscape:cx="173.00721"
     inkscape:cy="114.38018"
     inkscape:window-width="1366"
     inkscape:window-height="745"
     inkscape:window-x="-8"
     inkscape:window-y="-8"
     inkscape:window-maximized="1"
     inkscape:current-layer="svg270" />
  <defs
     id="SvgjsDefs1001">
    <linearGradient
       id="SvgjsLinearGradient1015">
      <stop
         id="SvgjsStop1016"
         stop-color="#616161"
         offset="0" />
      <stop
         id="SvgjsStop1017"
         stop-color="#e6e7e8"
         offset="0.5" />
      <stop
         id="SvgjsStop1018"
         stop-color="#616161"
         offset="1" />
    </linearGradient>
    <linearGradient
       id="SvgjsLinearGradient1019">
      <stop
         id="SvgjsStop1020"
         stop-color="#616161"
         offset="0" />
      <stop
         id="SvgjsStop1021"
         stop-color="#e6e7e8"
         offset="0.5" />
      <stop
         id="SvgjsStop1022"
         stop-color="#616161"
         offset="1" />
    </linearGradient>
    <linearGradient
       id="SvgjsLinearGradient1023">
      <stop
         id="SvgjsStop1024"
         stop-color="#616161"
         offset="0" />
      <stop
         id="SvgjsStop1025"
         stop-color="#e6e7e8"
         offset="0.5" />
      <stop
         id="SvgjsStop1026"
         stop-color="#616161"
         offset="1" />
    </linearGradient>
    <linearGradient
       id="SvgjsLinearGradient1027">
      <stop
         id="SvgjsStop1028"
         stop-color="#616161"
         offset="0" />
      <stop
         id="SvgjsStop1029"
         stop-color="#e6e7e8"
         offset="0.5" />
      <stop
         id="SvgjsStop1030"
         stop-color="#616161"
         offset="1" />
    </linearGradient>
  </defs>
  <g
     id="SvgjsG1007"
     featurekey="rootContainer"
     transform="matrix(1,0,0,1,0,0)"
     fill="url(#SvgjsLinearGradient1015)"
     style="fill:#000000">
    <path
       fill-rule="evenodd"
       d=" M0,0 H300 V319 H0,0 z M2,2 H298 V317 H2,2 z M6,6 H294 V313 H6 z M8,8 H292 V311 H6,8 z "
       id="path250"
       style="fill:#000000" />
  </g>
  <g
     id="SvgjsG1008"
     featurekey="symbolFeature-0"
     transform="matrix(1.3131108622346859,0,0,1.3131108622346859,84.65622165672698,36.36052826947198)"
     fill="url(#SvgjsLinearGradient1019)"
     style="fill:#000000">
    <path
       d="M87.027,54.271c-0.363-1.502-1.29-2.773-2.609-3.579s-2.873-1.051-4.376-0.687l-1.729,0.418l-0.14-0.581  c0.341-0.268,0.637-0.584,0.854-0.955c0.497-0.85,0.612-1.881,0.324-2.904c-0.386-1.371-1.512-2.386-2.868-2.663  c-0.358-0.954-1.035-1.743-1.934-2.246c-1.008-0.565-2.176-0.705-3.291-0.39c-1.011,0.285-1.88,0.936-2.448,1.805  c-0.482-0.076-0.975-0.056-1.459,0.061c-0.48,0.116-0.93,0.325-1.324,0.612c-1.192-0.945-2.805-1.23-4.292-0.696  c-1.049,0.378-1.915,1.153-2.429,2.146c-0.307-0.012-0.618,0.032-0.918,0.104c-0.48,0.116-0.93,0.326-1.325,0.612  c-1.286-1.021-3.059-1.264-4.626-0.561c-1.499,0.672-2.519,2.179-2.599,3.838c-0.022,0.462,0.026,0.916,0.14,1.352  c-0.211,0.078-0.416,0.177-0.612,0.297c-1.056,0.645-1.701,1.852-1.645,3.074c0.048,1.047,0.55,2.002,1.377,2.622  c0.441,0.331,0.946,0.538,1.473,0.631l6.738,27.914l-0.247,0.06c-0.258,0.062-0.48,0.225-0.619,0.45  c-0.138,0.227-0.181,0.499-0.119,0.757l0.636,2.631c0.337,1.395,1.588,2.333,2.964,2.333c0.236,0,0.476-0.027,0.716-0.086  l24.127-5.83c0.792-0.19,1.461-0.679,1.886-1.374c0.424-0.695,0.552-1.514,0.361-2.306l-0.636-2.632  c-0.13-0.536-0.669-0.866-1.207-0.736l-0.23,0.056l-0.967-3.998l1.722-0.417c3.102-0.749,5.016-3.883,4.266-6.985L87.027,54.271z   M62.624,54.334c-0.03-0.124,0.013-0.22,0.042-0.267c0.028-0.046,0.094-0.128,0.217-0.158l13.43-3.246l0.252,1.041  c-2.644,0.749-4.022,1.636-5.349,2.498c-1.402,0.91-2.726,1.771-5.697,2.488c-0.807,0.195-1.532,0.315-2.229,0.402L62.624,54.334z   M49.719,53.235c-0.023-0.497,0.253-1.009,0.688-1.273c0.282-0.172,0.588-0.238,0.913-0.208c0.382,0.043,0.761-0.146,0.962-0.479  c0.2-0.333,0.189-0.752-0.027-1.074c-0.304-0.451-0.444-0.955-0.418-1.5c0.043-0.914,0.601-1.742,1.419-2.109  c1.067-0.479,2.3-0.172,2.999,0.747c0.189,0.249,0.484,0.395,0.796,0.395c0.002,0,0.005,0,0.008,0  c0.315-0.002,0.61-0.153,0.797-0.407c0.249-0.337,0.596-0.568,1.002-0.666c0.28-0.068,0.562-0.066,0.838,0.005  c0.526,0.137,1.055-0.17,1.207-0.686c0.225-0.763,0.789-1.372,1.509-1.631c1.024-0.37,2.151-0.037,2.807,0.823  c0.19,0.251,0.513,0.41,0.803,0.395c0.315-0.002,0.61-0.152,0.797-0.406c0.249-0.337,0.596-0.568,1.003-0.667  c0.371-0.088,0.754-0.056,1.109,0.097c0.251,0.107,0.535,0.107,0.785,0.002c0.251-0.106,0.448-0.311,0.544-0.565  c0.266-0.699,0.828-1.216,1.542-1.417c0.599-0.17,1.228-0.095,1.77,0.209c0.542,0.305,0.934,0.802,1.103,1.4  c0.02,0.07,0.034,0.141,0.047,0.21c0.089,0.474,0.502,0.815,0.983,0.815c0.008-0.001,0.018,0,0.027,0  c0.786,0,1.481,0.525,1.694,1.282c0.14,0.495,0.095,0.976-0.125,1.352c-0.218,0.373-0.607,0.637-1.125,0.762l-13.763,3.325  c-0.611,0.147-1.127,0.524-1.455,1.061c-0.327,0.536-0.426,1.167-0.279,1.777l1.44,5.964c0.104,0.429,0.034,0.873-0.196,1.25  c-0.23,0.378-0.594,0.643-1.024,0.747c-0.889,0.211-1.783-0.333-1.998-1.22l-1.44-5.962c-0.26-1.076-1.226-1.801-2.288-1.801  c-0.182,0-0.367,0.021-0.551,0.066l-3.115,0.753c-0.419,0.103-0.862,0.011-1.21-0.25C49.945,54.086,49.74,53.69,49.719,53.235z   M52.584,56.398l2.508-0.606c0.19-0.048,0.38,0.071,0.426,0.259l0.221,0.915c-0.908,0.068-1.863,0.223-2.907,0.46L52.584,56.398z   M84.945,82.394c-0.146,0.238-0.376,0.406-0.648,0.473l-24.127,5.83c-0.566,0.134-1.13-0.212-1.266-0.773l-0.401-1.659l26.166-6.323  L85.07,81.6C85.136,81.872,85.092,82.154,84.945,82.394z M59.252,84.025l-5.951-24.656c1.064-0.24,2.014-0.377,2.916-0.423  l0.741,3.067c0.405,1.672,1.905,2.797,3.553,2.797c0.284,0,0.572-0.034,0.859-0.104c0.949-0.229,1.752-0.814,2.261-1.647  c0.509-0.833,0.663-1.814,0.434-2.763l-0.301-1.247c0.704-0.097,1.432-0.223,2.226-0.416c3.303-0.798,4.834-1.792,6.316-2.755  c1.239-0.804,2.422-1.569,4.73-2.232l5.962,24.64L59.252,84.025z M85.226,71.46l-1.723,0.417l-4.721-19.51l1.728-0.417  c0.982-0.236,2-0.078,2.864,0.449c0.864,0.527,1.47,1.359,1.708,2.344l2.935,12.146C88.508,68.918,87.256,70.969,85.226,71.46z"
       id="path253"
       style="fill:#000000" />
    <path
       d="M43.229,63.452l-0.247-0.06l6.738-27.916c0.526-0.093,1.032-0.299,1.472-0.629c0.827-0.619,1.329-1.575,1.377-2.621  c0.057-1.225-0.589-2.432-1.646-3.075c-0.196-0.12-0.401-0.219-0.611-0.297c0.114-0.436,0.162-0.89,0.14-1.352  c-0.08-1.659-1.1-3.165-2.599-3.838c-1.568-0.706-3.341-0.46-4.627,0.561c-0.395-0.287-0.845-0.496-1.326-0.613  c-0.3-0.071-0.621-0.111-0.917-0.104c-0.514-0.992-1.379-1.768-2.429-2.146c-1.489-0.536-3.102-0.25-4.292,0.696  c-0.395-0.287-0.845-0.496-1.326-0.612c-0.483-0.118-0.977-0.137-1.458-0.061c-0.568-0.869-1.437-1.52-2.448-1.806  c-2.177-0.614-4.44,0.559-5.224,2.637c-1.355,0.277-2.481,1.293-2.868,2.663c-0.289,1.023-0.173,2.056,0.324,2.905  c0.217,0.371,0.513,0.686,0.854,0.954l-0.141,0.581l-1.728-0.417c-3.102-0.752-6.235,1.164-6.985,4.266l-2.936,12.146  c-0.363,1.503-0.119,3.058,0.687,4.377c0.806,1.319,2.077,2.246,3.58,2.608l1.722,0.416l-0.967,3.998l-0.23-0.056  c-0.532-0.132-1.077,0.2-1.207,0.736l-0.636,2.633c-0.191,0.791-0.062,1.609,0.362,2.305c0.425,0.695,1.094,1.184,1.886,1.374  l24.127,5.83c0.239,0.059,0.481,0.087,0.722,0.087c0.554,0,1.099-0.152,1.583-0.448c0.695-0.424,1.183-1.094,1.375-1.885  l0.636-2.632c0.062-0.258,0.02-0.53-0.119-0.757C43.709,63.677,43.487,63.514,43.229,63.452z M47.459,36.323  c-1.044-0.236-1.999-0.392-2.907-0.46l0.221-0.915c0.045-0.188,0.234-0.3,0.424-0.26l2.51,0.607L47.459,36.323z M22.865,25.424  c0.213-0.757,0.909-1.282,1.694-1.282c0.009,0,0.02-0.001,0.027,0c0.482,0,0.896-0.345,0.983-0.82  c0.013-0.067,0.027-0.137,0.046-0.205c0.349-1.235,1.637-1.953,2.873-1.61c0.714,0.202,1.276,0.719,1.543,1.419  c0.097,0.254,0.294,0.458,0.544,0.564c0.251,0.106,0.534,0.104,0.785-0.002c0.354-0.152,0.737-0.185,1.107-0.097  c0.408,0.099,0.755,0.33,1.004,0.667c0.187,0.254,0.482,0.404,0.797,0.406c0.344,0.002,0.613-0.144,0.803-0.395  c0.654-0.86,1.78-1.193,2.806-0.823c0.72,0.259,1.284,0.868,1.509,1.631c0.152,0.516,0.684,0.817,1.207,0.686  c0.277-0.07,0.559-0.072,0.836-0.006c0.408,0.099,0.755,0.33,1.004,0.668c0.187,0.254,0.482,0.404,0.797,0.406  c0.002,0,0.005,0,0.007,0c0.312,0,0.607-0.146,0.796-0.395c0.698-0.92,1.932-1.227,2.999-0.747c0.818,0.367,1.376,1.195,1.419,2.108  c0.026,0.546-0.115,1.051-0.418,1.501c-0.217,0.322-0.228,0.741-0.028,1.074s0.577,0.52,0.962,0.479  c0.323-0.03,0.631,0.036,0.912,0.207c0.435,0.266,0.712,0.777,0.688,1.274c-0.021,0.455-0.227,0.851-0.58,1.115  c-0.347,0.26-0.787,0.352-1.21,0.25l-3.115-0.754c-1.263-0.301-2.534,0.475-2.838,1.734l-1.441,5.963  c-0.104,0.429-0.369,0.793-0.746,1.023c-0.377,0.229-0.821,0.3-1.251,0.196c-0.887-0.215-1.434-1.11-1.22-1.997l1.441-5.964  c0.147-0.61,0.048-1.241-0.279-1.777s-0.844-0.913-1.455-1.06l-13.763-3.326c-0.518-0.125-0.907-0.389-1.125-0.762  C22.77,26.399,22.725,25.919,22.865,25.424z M23.977,29.561l13.431,3.247c0.123,0.029,0.189,0.111,0.217,0.157  c0.028,0.047,0.071,0.143,0.042,0.266L37,35.99c-0.696-0.087-1.422-0.207-2.229-0.402c-2.971-0.718-4.295-1.578-5.697-2.488  c-1.327-0.862-2.705-1.749-5.349-2.498L23.977,29.561z M15.064,50.357c-2.03-0.491-3.283-2.542-2.792-4.571l2.936-12.146  c0.237-0.984,0.844-1.816,1.708-2.344c0.864-0.526,1.881-0.685,2.864-0.449l1.728,0.417l-4.721,19.51L15.064,50.357z M23.255,32.544  c2.308,0.663,3.491,1.427,4.73,2.232c1.481,0.962,3.013,1.957,6.316,2.755c0.794,0.193,1.522,0.319,2.226,0.416l-0.301,1.247  c-0.473,1.958,0.735,3.937,2.694,4.41c0.287,0.069,0.577,0.104,0.865,0.104c0.664,0,1.317-0.183,1.898-0.538  c0.833-0.509,1.418-1.312,1.648-2.26l0.741-3.067c0.902,0.046,1.852,0.183,2.916,0.423l-5.951,24.656l-23.745-5.738L23.255,32.544z   M41.386,66.821c-0.136,0.561-0.701,0.903-1.265,0.772l-24.127-5.83c-0.272-0.066-0.502-0.234-0.648-0.473  c-0.146-0.239-0.19-0.521-0.125-0.793l0.401-1.66l26.166,6.323L41.386,66.821z"
       id="path255"
       style="fill:#000000" />
    <path
       d="M49.206,11.371l-0.091,5.249c-0.009,0.553,0.431,1.008,0.983,1.018c0.006,0,0.012,0,0.018,0c0.544,0,0.99-0.437,1-0.982  l0.091-5.249c0.009-0.553-0.431-1.008-0.983-1.018C49.645,10.354,49.215,10.819,49.206,11.371z"
       id="path257"
       style="fill:#000000" />
    <path
       d="M57.83,12.146l-2.703,4.501c-0.284,0.474-0.131,1.088,0.343,1.372c0.161,0.097,0.338,0.143,0.514,0.143  c0.339,0,0.671-0.173,0.858-0.485l2.703-4.501c0.284-0.474,0.131-1.088-0.343-1.372C58.729,11.519,58.114,11.672,57.83,12.146z"
       id="path259"
       style="fill:#000000" />
    <path
       d="M41.033,11.836c-0.468,0.293-0.611,0.91-0.318,1.378l2.78,4.453c0.189,0.304,0.516,0.471,0.849,0.471  c0.181,0,0.364-0.049,0.529-0.151c0.468-0.293,0.611-0.91,0.318-1.378l-2.78-4.453C42.119,11.688,41.503,11.544,41.033,11.836z"
       id="path261"
       style="fill:#000000" />
  </g>
  <g
     id="SvgjsG1009"
     featurekey="nameFeature-0"
     transform="matrix(1.3259082793398378,0,0,1.3259082793398378,47.34818344132032,164.92309783570803)"
     fill="url(#SvgjsLinearGradient1023)"
     style="fill:#000000">
    <path
       d="M2 40 l0 -32 l4 0 l0 28 l5.2 0 l0 4 l-9.2 0 z M13.6 40 l0 -16.8 c0 -11.16 0 -15.56 6 -15.56 s6 4.4 6 15.56 l0 16.8 l-4 0 l0 -9.2 l-4 0 l0 9.2 l-4 0 z M17.6 27.6 l4 0 l0 -4.4 c0 -10.4 0 -12.36 -2 -12.36 s-2 1.96 -2 12.36 l0 4.4 z M38.400000000000006 40 l0 -32 l6.48 0 c4.12 0 5.52 2.52 5.52 7.36 c0 4.36 -0.52 6.84 -1.76 8.04 l0 0.24 c1.04 0.36 1.36 2.24 1.76 6.92 l0.8 9.44 l-4 0 l-0.52 -9.44 c-0.28 -4.76 -1 -5.76 -2.2 -5.76 l-2.08 0 l0 15.2 l-4 0 z M42.400000000000006 21.6 l2.48 0 c1.4 0 1.8 -1.4 1.8 -6.24 c0 -3.16 -0.6 -4.16 -1.8 -4.16 l-2.48 0 l0 10.4 z M54.00000000000001 23.16 c0 -11.16 0.24 -15.56 6.24 -15.56 s6.24 4.4 6.24 15.56 c0 12.8 -0.24 17.24 -6.24 17.24 s-6.24 -4.44 -6.24 -17.24 z M58.00000000000001 23.16 c0 11.56 0 13.24 2.24 13.24 s2.24 -1.68 2.24 -13.24 c0 -10.4 0 -12.36 -2.24 -12.36 s-2.24 1.96 -2.24 12.36 z M69.68 23.16 c0 -11.16 0 -15.56 5.6 -15.56 c4.12 0 5.24 2.52 5.52 8.56 l-3.72 0 c-0.16 -4.36 -0.6 -5.36 -1.8 -5.36 c-1.84 0 -1.84 1.96 -1.84 12.36 c0 11.56 0 13.24 1.84 13.24 c1.32 0 1.72 -1 1.8 -6.16 l3.76 0 c-0.24 7.4 -1.24 10.16 -5.56 10.16 c-5.6 0 -5.6 -4.44 -5.6 -17.24 z M83.64000000000001 40 l0 -16.8 c0 -11.16 0 -15.56 6 -15.56 s6 4.4 6 15.56 l0 16.8 l-4 0 l0 -9.2 l-4 0 l0 9.2 l-4 0 z M87.64000000000001 27.6 l4 0 l0 -4.4 c0 -10.4 0 -12.36 -2 -12.36 s-2 1.96 -2 12.36 l0 4.4 z M108.44000000000001 40 l0 -32 l6.08 0 c4.12 0 5.48 2.56 5.48 7.16 l0 0.84 c0 2.76 -0.64 4.92 -1.36 6.48 l0 0.16 c1.48 1.24 2.4 3.68 2.6 7.92 l0 1.28 c-0.32 5.64 -1.8 8.16 -5.92 8.16 l-6.88 0 z M112.44000000000001 21.6 l2.08 0 c1.12 0 1.92 -1.32 1.92 -5.6 l0 -0.84 c0 -3.08 -0.72 -3.96 -1.92 -3.96 l-2.08 0 l0 10.4 z M112.44000000000001 36 l2.88 0 c1.2 0 2.04 -1 2.2 -4.16 l0 -1.28 c-0.16 -4.76 -1 -5.76 -2.2 -5.76 l-2.88 0 l0 11.2 z M124.04 40 l0 -16.8 c0 -11.16 0 -15.56 6 -15.56 s6 4.4 6 15.56 l0 16.8 l-4 0 l0 -9.2 l-4 0 l0 9.2 l-4 0 z M128.04000000000002 27.6 l4 0 l0 -4.4 c0 -10.4 0 -12.36 -2 -12.36 s-2 1.96 -2 12.36 l0 4.4 z M140.04000000000002 40 l0 -32 l6.48 0 c4.12 0 5.52 2.52 5.52 7.36 c0 4.36 -0.52 6.84 -1.76 8.04 l0 0.24 c1.04 0.36 1.36 2.24 1.76 6.92 l0.8 9.44 l-4 0 l-0.52 -9.44 c-0.28 -4.76 -1 -5.76 -2.2 -5.76 l-2.08 0 l0 15.2 l-4 0 z M144.04000000000002 21.6 l2.48 0 c1.4 0 1.8 -1.4 1.8 -6.24 c0 -3.16 -0.6 -4.16 -1.8 -4.16 l-2.48 0 l0 10.4 z"
       id="path264"
       style="fill:#000000" />
  </g>
  <g
     id="SvgjsG1010"
     featurekey="sloganFeature-0"
     transform="matrix(1.5661707500358168,0,0,1.5661707500358168,48.74706384805639,236.9350036920714)"
     fill="url(#SvgjsLinearGradient1027)"
     style="fill:#000000">
    <path
       d="M0.8 11.58 c0 -5.58 0 -7.78 2.8 -7.78 c2.06 0 2.62 1.26 2.76 4.28 l-1.86 0 c-0.08 -2.18 -0.3 -2.68 -0.9 -2.68 c-0.92 0 -0.92 0.98 -0.92 6.18 c0 5.78 0 6.62 0.92 6.62 c0.66 0 0.86 -0.5 0.9 -3.08 l1.88 0 c-0.12 3.7 -0.62 5.08 -2.78 5.08 c-2.8 0 -2.8 -2.22 -2.8 -8.62 z M9.080000000000002 11.58 c0 -5.58 0.12 -7.78 3.12 -7.78 s3.12 2.2 3.12 7.78 c0 6.4 -0.12 8.62 -3.12 8.62 s-3.12 -2.22 -3.12 -8.62 z M11.080000000000002 11.58 c0 5.78 0 6.62 1.12 6.62 s1.12 -0.84 1.12 -6.62 c0 -5.2 0 -6.18 -1.12 -6.18 s-1.12 0.98 -1.12 6.18 z M18.42 11.58 c0 -5.58 0 -7.78 2.8 -7.78 c2.06 0 2.62 1.26 2.76 4.28 l-1.86 0 c-0.08 -2.18 -0.3 -2.68 -0.9 -2.68 c-0.92 0 -0.92 0.98 -0.92 6.18 c0 5.78 0 6.62 0.92 6.62 c0.66 0 0.86 -0.5 0.9 -3.08 l1.88 0 c-0.12 3.7 -0.62 5.08 -2.78 5.08 c-2.8 0 -2.8 -2.22 -2.8 -8.62 z M26.1 5.800000000000001 l0 -1.8 l6 0 l0 1.8 l-2 0 l0 14.2 l-2 0 l0 -14.2 l-2 0 z M34.800000000000004 20 l0 -16 l4.6 0 l0 1.6 l-2.6 0 l0 5.2 l2.2 0 l0 1.6 l-2.2 0 l0 5.6 l2.6 0 l0 2 l-4.6 0 z M42.300000000000004 20 l0 -16 l2 0 l0 14 l2.6 0 l0 2 l-4.6 0 z M49.6 20 l0 -16 l4.6 0 l0 1.6 l-2.6 0 l0 5.2 l2.2 0 l0 1.6 l-2.2 0 l0 5.6 l2.6 0 l0 2 l-4.6 0 z M57.1 20 l0 -16 l3.24 0 c2.06 0 2.76 1.26 2.76 3.68 c0 2.18 -0.26 3.42 -0.88 4.02 l0 0.12 c0.52 0.18 0.68 1.12 0.88 3.46 l0.4 4.72 l-2 0 l-0.26 -4.72 c-0.14 -2.38 -0.5 -2.88 -1.1 -2.88 l-1.04 0 l0 7.6 l-2 0 z M59.1 10.8 l1.24 0 c0.7 0 0.9 -0.7 0.9 -3.12 c0 -1.58 -0.3 -2.08 -0.9 -2.08 l-1.24 0 l0 5.2 z M66.82 2.8999999999999986 l0.5 -2.02 c0.04 -0.12 0.12 -0.2 0.26 -0.2 l0.6 0 c0.18 0 0.26 0.1 0.2 0.26 l-0.7 2.02 c-0.04 0.14 -0.14 0.2 -0.26 0.2 l-0.38 0 c-0.18 0 -0.26 -0.1 -0.22 -0.26 z M66.6 20 l0 -16 l2 0 l0 16 l-2 0 z M72.1 20 l0 -8.4 c0 -5.58 0 -7.78 3 -7.78 s3 2.2 3 7.78 l0 8.4 l-2 0 l0 -4.6 l-2 0 l0 4.6 l-2 0 z M74.1 13.8 l2 0 l0 -2.2 c0 -5.2 0 -6.18 -1 -6.18 s-1 0.98 -1 6.18 l0 2.2 z M86.7 4 l2 0 l1.2 6.16 l0.2 0 l1.2 -6.16 l2 0 l-2.3 9.04 l0 6.96 l-2 0 l0 -6.96 z M101.9 20 l0 -16 l1.8 0 l2.1 10 l0.2 0 l2.1 -10 l1.8 0 l0 16 l-2 0 l0 -8 l-1.42 8 l-1.2 0 l-1.38 -8 l0 8 l-2 0 z M115.62 2.9800000000000004 l0.5 -2.02 c0.04 -0.12 0.12 -0.2 0.26 -0.2 l0.6 0 c0.18 0 0.26 0.1 0.2 0.26 l-0.7 2.02 c-0.04 0.14 -0.14 0.2 -0.26 0.2 l-0.38 0 c-0.18 0 -0.26 -0.1 -0.22 -0.26 z M113.4 20 l0 -8.4 c0 -5.58 0 -7.78 3 -7.78 s3 2.2 3 7.78 l0 8.4 l-2 0 l0 -4.6 l-2 0 l0 4.6 l-2 0 z M115.4 13.8 l2 0 l0 -2.2 c0 -5.2 0 -6.18 -1 -6.18 s-1 0.98 -1 6.18 l0 2.2 z M122.5 15.120000000000001 l2.02 0 c0.04 2.58 0.24 3.08 0.96 3.08 c0.98 0 0.98 -0.82 0.98 -3 c0 -3.2 -3.96 -2.34 -3.96 -6.6 c0 -2.5 0 -4.8 3 -4.8 c2.22 0 2.82 1.26 2.96 4.28 l-2 0 c-0.08 -2.18 -0.32 -2.68 -0.96 -2.68 c-0.98 0 -0.98 1.08 -0.98 3.2 c0 3.1 3.98 2 3.98 6.6 c0 2.8 0 5 -3.02 5 c-2.32 0 -2.86 -1.38 -2.98 -5.08 z"
       id="path267"
       style="fill:#000000" />
  </g>
</svg>
